<svg id="Layer_1" data-name="Layer 1" xmlns="http://www.w3.org/2000/svg" viewBox="0 0 1536 1536"><title>api</title><path d="M1569.5,128H222.5A94.49,94.49,0,0,0,128,222.5v1347a94.49,94.49,0,0,0,94.5,94.5h1347a94.49,94.49,0,0,0,94.5-94.5V222.5A94.49,94.49,0,0,0,1569.5,128ZM660.2,1054.8L636,988H467l-24.8,66.8H346.5l152.4-394H604.1l151.8,394H660.2Zm368.1-140H927.9v140H844v-394h184.3c85.7,0,132.3,57.9,132.3,127C1160.7,856.3,1113.4,914.8,1028.3,914.8Zm314.4,140h-83.9v-394h83.9v394ZM490.1,914.2H613L551.6,744.6Zm527-179.6H927.9V840.9h89.2c33.1,0,57.9-20.7,57.9-53.2C1075,754.7,1050.2,734.6,1017.1,734.6Z" transform="translate(-128 -128)"/></svg>