<svg version="1.0" xmlns="http://www.w3.org/2000/svg" xmlns:xlink="http://www.w3.org/1999/xlink" x="0px" y="0px"
   viewBox="0 0 1792 1792" enable-background="new 0 0 1792 1792" xml:space="preserve">
<path d="M291,696c39-39,82-54,138-54c117,0,211,94,211,210v226h128c12-145,110-256,256-256c39,0,72-25,72-64c0-38-33-64-72-64
  c-97,0-187,35-256,93v-99c17-124,127-228,256-228c67,0,135,37,183,85c27,28,72,28,99,0c28-27,28-71,0-99c-74-74-177-126-282-126
  c-171,0-308,117-363,269c-62-54-143-88-232-88c-93,0-171,30-238,96c-27,28-27,72,0,99C219,724,263,724,291,696z M1388,704
  c-39,0-71,25-71,64s32,64,71,64c149,0,276,127,276,256c0,130-117,236-256,236c-6,0-1096,0-1100,0c-103,0-180-76-180-168
  c0-93,87-196,180-196c38,0,76-25,76-64c0-38-38-64-76-64C138,832,0,986,0,1156c0,169,128,316,308,316c4,0,1094,0,1100,0
  c217,0,384-177,384-384S1615,704,1388,704z"/>
</svg>
