<svg xmlns="http://www.w3.org/2000/svg" viewBox="0 0 2019.06 1792"><title>bell-slash</title><path d="M1430,852q61,356,298,556,0,52-38,90t-90,38H1152q0,106-75,181t-181,75q-106,0-180.5-74.5T640,1537Zm468-740a34.35,34.35,0,0,1,7.5,23.5A30.64,30.64,0,0,1,1895,158L23,1780a32.43,32.43,0,0,1-23.5,7q-13.5-1-21.5-11l-84-96a34.35,34.35,0,0,1-7.5-23.5Q-113,1643-103,1635L83,1474q-19-32-19-66a878.38,878.38,0,0,0,91-88q41-46,85-119.5A898.34,898.34,0,0,0,314.5,1042q30.5-85,50-206T384,576q0-152,117-282.5T808,135a99.6,99.6,0,0,1-8-39q0-40,28-68T896,0q40,0,68,28t28,68a99.6,99.6,0,0,1-8,39q124,18,219,82.5T1351,375L1769,12a32.43,32.43,0,0,1,23.5-7Q1806,6,1814,16Z" transform="translate(113.53)"/></svg>