<svg xmlns="http://www.w3.org/2000/svg" viewBox="0 0 1664 1792"><title>bell</title><path d="M1728,1408q0,52-38,90t-90,38H1152q0,106-75,181t-181,75q-106,0-181-75t-75-181H192q-52,0-90-38t-38-90a878.38,878.38,0,0,0,91-88q41-46,85-119.5A898.34,898.34,0,0,0,314.5,1042q30.5-85,50-206T384,576q0-152,117-282.5T808,135a99.6,99.6,0,0,1-8-39q0-40,28-68T896,0q40,0,68,28t28,68a99.6,99.6,0,0,1-8,39q190,28,307,158.5T1408,576q0,139,19.5,260t50,206a898.34,898.34,0,0,0,74.5,158.5q44,73.5,85,119.5A878.38,878.38,0,0,0,1728,1408Z" transform="translate(-64)"/></svg>