<svg xmlns="http://www.w3.org/2000/svg" viewBox="0 0 1536 1536"><title>failover</title><path d="M1344,1024q-126,0-218,86L766,930q2-22,2-34t-2-34l360-180q92,86,218,86,133,0,226.5-93.5T1664,448q0-133-93.5-226.5T1344,128q-133,0-226.5,93.5T1024,448q0,12,2,34L666,662q-92-86-218-86-133,0-226.5,93.5T128,896q0,133,93.5,226.5T448,1216q126,0,218-86l360,180q-2,22-2,34,0,133,93.5,226.5T1344,1664q133,0,226.5-93.5T1664,1344q0-133-93.5-226.5T1344,1024Zm0.29-756a179.71,179.71,0,1,1-179.71,179.71A179.71,179.71,0,0,1,1344.29,268Z" transform="translate(-128 -128)"/></svg>