<svg version="1.0" xmlns="http://www.w3.org/2000/svg" xmlns:xlink="http://www.w3.org/1999/xlink" x="0px" y="0px"
	 viewBox="-389 190.7 1792 1792" enable-background="new -389 190.7 1792 1792" xml:space="preserve">
<path d="M1246.3,1018.4L575.7,347.9c-38.4-38.4-101.5-38.4-139.9,0L296.8,486.9l176.6,176.6c41-13.7,87.9-4.3,121.1,28.2
	c33.3,33.3,41.8,80.2,28.2,122l170.6,170.6c41-14.5,88.7-5.1,122,28.2c46.1,46.1,46.1,120.3,0,166.4c-46.1,46.1-120.3,46.1-166.4,0
	c-35-35-43.5-85.3-25.6-128L562.9,891.3v418c11.1,6,22.2,12.8,30.7,22.2c46.1,46.1,46.1,120.3,0,166.4s-120.3,46.1-166.4,0
	s-46.1-120.3,0-166.4c11.1-11.1,24.7-19.6,38.4-25.6V883.6c-13.7-6-27.3-14.5-38.4-25.6c-35-35-43.5-86.2-25.6-128.8l-174-174
	L-232.2,1015c-38.4,38.4-38.4,101.5,0,139.9l670.6,670.6c38.4,38.4,101.5,38.4,139.9,0l667.2-667.2
	C1284.7,1119.1,1284.7,1056.8,1246.3,1018.4"/>
</svg>
