<svg version="1.0" xmlns="http://www.w3.org/2000/svg" xmlns:xlink="http://www.w3.org/1999/xlink" x="0px" y="0px"
	 viewBox="0 0 1792 1792" enable-background="new 0 0 1792 1792" xml:space="preserve">
<path d="M546.9,228.8L546.9,228.8 M1526.5,1352.4L1526.5,1352.4 M1245.1,228.8v3.3v890.2c0,100.4,147.3,177.8,281.5,230.2
	c86.2-124.4,137.5-276,137.5-439.6C1664,614.1,1493.8,355.3,1245.1,228.8z M546.9,1122.2V228.4C298.2,355.5,128,614.1,128,912.8
	c0,163.6,51,315.1,138.1,439.6C400.1,1300.1,546.9,1223.5,546.9,1122.2z M1359.6,1524.8c-130.5-88.4-254.2-204.4-254.2-402.5V173.1
	c-45-12.2-91.6-20.7-139.6-25.1v1113.8c0,92.7,82.8,247.6,165.5,382.2C1214.7,1617.3,1292,1577.1,1359.6,1524.8z M826.2,147.9
	c-48,4.5-94.6,13-139.6,25.7v948.6c0,198.2-123.7,314.2-254.7,402.6c68.3,51.8,145.5,92.5,228.9,119.3
	c82.7-134.4,165.4-289.3,165.4-382.3V147.9z M686.5,173.6L686.5,173.6"/>
</svg>
