<svg version="1.0" xmlns="http://www.w3.org/2000/svg" xmlns:xlink="http://www.w3.org/1999/xlink" x="0px" y="0px"
	 viewBox="-695 746 1792 1792" enable-background="new -695 746 1792 1792" xml:space="preserve">
	<path d="M400.7,2221.8c-0.4,0-0.9,0-1.3,0c-18-0.6-33.2-13.7-36.5-31.4l-166-900.1L69.5,1846.7c-3.7,16-17.1,27.9-33.4,29.6
		c-16.3,1.8-31.9-7.1-38.8-22l-160.7-345.5l-80.6,176c-6.3,13.7-19.9,22.4-34.9,22.4h-249.6c-21.2,0-38.4-17.2-38.4-38.4
		c0-21.2,17.2-38.4,38.4-38.4h224.9l104.9-229.2c6.2-13.6,19.8-22.4,34.8-22.4c0,0,0.1,0,0.1,0c14.9,0,28.5,8.7,34.8,22.2
		l148.6,319.4l144-628.4c4.1-17.8,20-30.3,38.3-29.8c18.2,0.4,33.6,13.5,36.9,31.4l167.9,910.3l122-480.8
		c3.9-15.2,16.6-26.5,32.2-28.6c15.6-2.1,30.8,5.5,38.5,19.2l65.8,116.8h265.6c21.2,0,38.4,17.2,38.4,38.4
		c0,21.2-17.2,38.4-38.4,38.4h-288c-13.9,0-26.7-7.5-33.5-19.6l-29.7-52.7l-141.5,557.9C433.6,2210,418.2,2221.8,400.7,2221.8z"/>
</svg>
