<svg xmlns="http://www.w3.org/2000/svg" viewBox="0 0 1792 1536"><title>restore</title><path d="M1194.67,896c0-93.87-76.8-170.67-170.67-170.67S853.33,802.13,853.33,896s76.8,170.67,170.67,170.67S1194.67,989.87,1194.67,896ZM1024,128c-424.11,0-768,343.89-768,768H0l341.33,341.33L682.67,896h-256c0-330.24,267.09-597.33,597.33-597.33S1621.33,565.76,1621.33,896,1354.24,1493.33,1024,1493.33c-128.85,0-248.32-41.81-346.45-110.93L556.37,1505.28C686.08,1604.27,848.21,1664,1024,1664c424.11,0,768-343.89,768-768S1448.11,128,1024,128Z" transform="translate(0 -128)"/></svg>