<svg version="1.0" xmlns="http://www.w3.org/2000/svg" xmlns:xlink="http://www.w3.org/1999/xlink" x="0px" y="0px"
	 viewBox="0 0 1792 1792" enable-background="new 0 0 1792 1792" xml:space="preserve">
<path d="M811.4,1368.8l-47.9-47.8L663,1421.5c-27.8,27.8-41.6,64-41.6,100.5c0,36.4,13.8,72.7,41.6,100.5
	c27.8,27.7,63.9,41.5,100.3,41.6c36.5,0,72.8-13.7,100.6-41.6c27.8-27.8,41.6-64,41.6-100.5c0-36.4-13.8-72.6-41.6-100.5
	L811.4,1368.8z M713.6,784.2l381-381l32.6-32.6c27.8-27.8,41.6-64,41.6-100.5c0-36.4-13.8-72.6-41.6-100.4
	c-27.8-27.8-64-41.6-100.5-41.6c-36.5,0-72.7,13.8-100.5,41.6L514.6,583.2c50.7,0.6,101.4,20.3,140,59
	C693.7,681.3,713.5,732.9,713.6,784.2z M1379.8,905.7l-52.6-52.7L1028,553.8L654.6,927.2l-42-42c27.8-27.8,41.6-64,41.6-100.5
	c0-36.5-13.8-72.7-41.6-100.5c-27.8-27.8-64-41.6-100.5-41.6c-36.5,0-72.7,13.8-100.5,41.6c-27.8,27.8-41.6,64-41.6,100.5
	c0,36.4,13.8,72.6,41.6,100.5l441.7,441.7l52.6,52.6c39.3,39.3,59,91,59,142.4c0,0.7-0.1,1.3-0.1,2l414.9-414.9
	c28.1-28.2,42.1-64.8,42.1-101.7C1421.9,970.4,1408,933.8,1379.8,905.7z M824.3,1097l-70-70l294.2-294.2l70,70L824.3,1097z
	 M986.9,1259.6l-70-70l294.2-294.2l70,70L986.9,1259.6z"/>
</svg>
