<svg version="1.0" xmlns="http://www.w3.org/2000/svg" xmlns:xlink="http://www.w3.org/1999/xlink" x="0px" y="0px"
	 viewBox="0 0 1792 1792" enable-background="new 0 0 1792 1792" xml:space="preserve">
<path d="M1576.5,498h-407v-81.4c0-72.6-59.3-132.6-131.9-132.6h-284c-72.6,0-131.1,59.9-131.1,132.6V498H215.1
	c-48.5,0-87.1,42.7-87.1,91.2v357.7h662.8v-77.2c0-12.5,10.2-21,22.7-21h164.7c12.5,0,19.5,8.6,19.5,21v77.2H1664V589.2
	C1664,540.6,1625,498,1576.5,498z M1081.9,498H710.1v-81.4c0-24.2,19.2-44.9,43.5-44.9h284c24.2,0,44.3,20.7,44.3,44.9V498z
	 M997.7,1134.8c0,12.5-7,22.4-19.5,22.4H813.5c-12.5,0-22.7-10-22.7-22.4v-79.3H128v365.7c0,48.5,38.6,86.7,87.1,86.7h1361.4
	c48.5,0,87.5-38.2,87.5-86.7v-365.7H997.7V1134.8z"/>
</svg>
