<svg id="Layer_1" data-name="Layer 1" xmlns="http://www.w3.org/2000/svg" viewBox="0 0 1748.04 1248.6"><title>video-camera</title><path d="M1792,433.08V1494.39q0,41-38,57.55a67.83,67.83,0,0,1-24.39,4.88q-26.34,0-43.9-18.53l-393.11-393.11V1307.1q0,116.08-82.43,198.51T1011.62,1588H324.89q-116.08,0-198.51-82.43T44,1307.1V620.37q0-116.08,82.43-198.51t198.51-82.43h686.73q116.08,0,198.51,82.43t82.43,198.51v161l393.11-392.14q17.56-18.53,43.9-18.53a67.83,67.83,0,0,1,24.39,4.88Q1792,392.11,1792,433.08Z" transform="translate(-43.96 -339.44)"/></svg>