<svg id="Layer_1" data-name="Layer 1" xmlns="http://www.w3.org/2000/svg" viewBox="0 0 1792 1446.78"><title>video-camera-mute</title><path d="M1290.83,1339.44c0-.29.05-0.58,0.08-0.87L293.37,341l-0.19,0L134.63,182.37q-9.76-9.76-22.44-9.76t-22.44,9.76l-80,80Q0,272.12,0,284.8t9.76,22.44L125.26,422.84Q43.78,505,43.77,620.4v686.8q0,116.09,82.44,198.53t198.53,82.44h686.8q115.13,0,197.15-81.09l102.48,102.55q9.76,9.76,22.44,9.76t22.44-9.76l80-80q9.76-9.76,9.76-22.44t-9.76-22.44ZM1754,375.53a67.84,67.84,0,0,0-24.39-4.88q-26.34,0-43.9,18.54L1292.51,781.37v-161q0-116.09-82.44-198.53t-198.53-82.44h-470L1754.1,1552q37.9-16.6,37.9-57.49V433.09Q1792,392.12,1754,375.53Z" transform="translate(0 -172.61)"/></svg>