<svg viewBox="0 0 144 30" xmlns="http://www.w3.org/2000/svg"><g fill="none" fill-rule="evenodd"><path d="M2.68 23.677c.992 1.408 2.222 2.642 3.63 3.637l4.958-8.604-8.587 4.967M6.31 2.707C4.902 3.7 3.672 4.935 2.68 6.343l8.588 4.966L6.31 2.706M21.272 1.35C19.74.638 18.072.18 16.312.023v9.933l4.96-8.604M8.65 28.67c1.533.71 3.203 1.173 4.96 1.33v-9.935L8.65 28.67M27.244 6.343c-.992-1.408-2.222-2.644-3.63-3.636l-4.957 8.602 8.587-4.967M23.614 27.314c1.408-.995 2.638-2.23 3.63-3.637l-8.588-4.967 4.958 8.604" fill="#8CC63F"/><path d="M29.923 13.655c-.16-1.76-.617-3.435-1.325-4.967l-8.59 4.967h9.915M0 16.363c.16 1.765.616 3.436 1.325 4.966l8.592-4.967H0M1.325 8.688C.615 10.22.158 11.895 0 13.655h9.917L1.325 8.688M20.008 16.363l8.59 4.966c.71-1.53 1.168-3.202 1.325-4.967h-9.915M8.65 1.35l4.96 8.605V.022c-1.757.157-3.427.615-4.96 1.33zM16.313 30c1.758-.157 3.426-.62 4.96-1.33l-4.96-8.605V30" fill="#00853F"/><path d="M47.156 11.663c-.095-1.322-1.51-2.202-2.922-2.202-3.402 0-4.032 3.12-4.032 5.553 0 2.85.862 5.545 3.86 5.545 1.468 0 2.807-.727 3.034-2.197h2.007c-.19 2.316-2.522 3.842-5.212 3.842-4.068 0-5.69-3.325-5.69-7.19 0-3.386 1.487-7.328 6.108-7.195 2.653.077 4.643 1.378 4.85 3.846h-2.002M57.312 16.2c.038-1.61-.69-2.854-2.446-2.854-1.51 0-2.406 1.28-2.406 2.855h4.852zm-4.852 1.26c-.132 1.684.556 3.423 2.406 3.423 1.414 0 2.12-.553 2.332-1.95h1.91c-.29 2.18-1.967 3.27-4.26 3.27-3.073 0-4.295-2.178-4.295-5.01 0-2.812 1.41-5.166 4.447-5.166 2.865.056 4.22 1.875 4.22 4.53v.902h-6.76zM62.857 13.73h.037c.613-1.208 1.95-1.703 2.903-1.703.668 0 3.63.173 3.63 3.253v6.634h-1.815V15.87c0-1.588-.667-2.448-2.2-2.448 0 0-.99-.057-1.754.71-.267.264-.764.69-.764 2.563v5.22H61.08v-9.6h1.777v1.414M72.296 12.31V10.27l1.814-.575v2.618h2.215v1.32H74.11v6.165c0 .685.535 1.01 1.185 1.01.285 0 .667-.036.952-.112v1.396c-.417.02-.82.112-1.237.112-.44 0-.786-.017-1.223-.092-.287-.058-.767-.21-1.07-.633-.326-.46-.42-.496-.42-1.778v-6.07h-1.642v-1.32h1.64M84.3 12.314h1.81v9.6H84.34v-1.412h-.04c-.725 1.202-1.948 1.7-3.284 1.7-2.005 0-3.152-1.526-3.152-3.462v-6.426h1.816v5.68c0 1.666.38 2.89 2.12 2.89.743 0 1.754-.382 2.14-1.38.34-.895.36-2.024.36-2.255v-4.936M90.35 21.914h-1.814v-9.6h1.814v1.853h.04c.268-1.318 1.487-1.988 2.806-1.988.228 0 .42.02.63.02v1.72c-.248-.093-.535-.093-.783-.093-2.293.075-2.693 1.3-2.693 3.328v4.76M99.192 25.59h-1.856l1.452-3.712-3.99-9.564h2.02l3 7.575 3.06-7.576h1.946L99.192 25.59M106.183 21.914V8.104h2.96V19.62h5.976v2.294h-8.937M116.912 21.915h2.866v-9.6h-2.866v9.6zm-.095-11.343h3.056v-2.47h-3.056v2.47zM125.368 13.422l.037.06c.595-.883 1.49-1.455 2.942-1.455.954 0 2.807.705 3.15 2.104.153.593.193 1.207.193 1.532v6.252h-2.866V16.14c-.016-1.034-.306-2.198-1.718-2.198-.9 0-1.68.803-1.72 2.2v5.772h-2.862v-9.6h2.844v1.108M137.325 16.2l.037.034 2.827-4.034h3.187l-3.304 4.208 3.513 5.506h-3.34l-2.884-5.257-.037.038v5.22h-2.862V8.102h2.862V16.2" fill="#333"/></g></svg>