<svg version="1.0" xmlns="http://www.w3.org/2000/svg" xmlns:xlink="http://www.w3.org/1999/xlink" x="0px" y="0px"
	 viewBox="-317 118 1792 1792" enable-background="new -317 118 1792 1792" xml:space="preserve">
	<path d="M1252.5,246h-1347c-52.2,0-94.5,42.3-94.5,94.5v1347c0,52.2,42.3,94.5,94.5,94.5h1347c52.2,0,94.5-42.3,94.5-94.5v-1347
		C1347,288.3,1304.7,246,1252.5,246z M343.2,1172.8L319,1106H150l-24.8,66.8H29.5l152.4-394h105.2l151.8,394H343.2z M711.3,1032.8
		H610.9v140H527v-394h184.3c85.7,0,132.3,57.9,132.3,127C843.7,974.3,796.4,1032.8,711.3,1032.8z M1025.7,1172.8h-83.9v-394h83.9
		V1172.8z M173.1,1032.2H296l-61.4-169.6L173.1,1032.2z M700.1,852.6h-89.2v106.3h89.2c33.1,0,57.9-20.7,57.9-53.2
		C758,872.7,733.2,852.6,700.1,852.6z"/>
</svg>
