<?xml version="1.0" encoding="utf-8"?>

<svg version="1.0" id="Layer_1" xmlns="http://www.w3.org/2000/svg" xmlns:xlink="http://www.w3.org/1999/xlink" x="0px" y="0px"
	 viewBox="-279 81 1792 1792" enable-background="new -279 81 1792 1792" xml:space="preserve">
<g id="Automation">
	<g id="Automation_1_">
		<path d="M570.1,1436v-103l-112.8-18.8c-5.5-19.4-13.2-37.9-22.9-55.2h0l66.5-93.1l-72.8-72.8l-93.1,66.5
			c-17.3-9.6-35.7-17.4-55.2-22.9L261,1023.9H158l-18.8,112.8c-19.4,5.5-37.9,13.2-55.2,22.9l-93.1-66.5l-72.8,72.8l66.5,93.1
			c-9.6,17.3-17.4,35.7-22.8,55.2l-112.8,18.8v103l112.8,18.8c5.5,19.4,13.2,37.9,22.9,55.2l-66.5,93.1l72.8,72.8l93.1-66.5
			c17.3,9.6,35.7,17.4,55.2,22.9L158,1745h103l18.8-112.8c19.4-5.5,37.9-13.2,55.2-22.9l93.1,66.5l72.8-72.8l-66.5-93.1
			c9.6-17.3,17.4-35.7,22.9-55.2L570.1,1436z M209.5,1487.5c-56.9,0-103-46.1-103-103s46.1-103,103-103s103,46.1,103,103
			C312.5,1441.4,266.4,1487.5,209.5,1487.5z"/>
		<path d="M1381.2,578.3l-58.3-135.1l-158.6,39.2c-18.2-22.3-38.8-42.3-61.2-59.4l-0.1,0l34.5-159.7L1000.8,209l-84.4,139.9
			c-28.1-2.9-56.7-2.5-85.3,1.2l-88.5-137.3l-135.1,58.3l39.2,158.6c-22.3,18.2-42.3,38.8-59.4,61.2l-159.7-34.5l-54.3,136.8
			l139.9,84.4c-2.9,28.1-2.5,56.7,1.3,85.3l-137.3,88.5l58.3,135.1L594,947.3c18.2,22.3,38.8,42.3,61.2,59.4l-34.5,159.7l136.8,54.3
			l84.4-139.9c28.1,2.9,56.7,2.5,85.3-1.2l88.5,137.3l135.1-58.3l-39.2-158.6c22.3-18.2,42.3-38.8,59.4-61.2l159.7,34.5l54.3-136.8
			l-139.9-84.4c2.9-28.1,2.5-56.7-1.2-85.3L1381.2,578.3z M937.4,850c-74.6,32.2-161.2-2.2-193.4-76.8
			c-32.2-74.7,2.2-161.2,76.8-193.4s161.2,2.2,193.4,76.8S1012,817.8,937.4,850z"/>
	</g>
</g>
<g id="Layer_1_1_">
</g>
</svg>
