<?xml version="1.0" encoding="utf-8"?>
<!-- Generator: Adobe Illustrator 19.1.0, SVG Export Plug-In . SVG Version: 6.00 Build 0)  -->
<svg version="1.0" id="Layer_1" xmlns="http://www.w3.org/2000/svg" xmlns:xlink="http://www.w3.org/1999/xlink" x="0px" y="0px"
	 viewBox="-279 81 1792 1792" enable-background="new -279 81 1792 1792" xml:space="preserve">
<g id="Autoscale">
	<g id="Autoscale_1_">
		<path d="M1293.7,606.3l90-335.9c3.4-12.7-0.2-26.3-9.5-35.7c-9.3-9.3-22.9-13-35.6-9.6l-335.8,90c-12.7,3.4-22.8,13.5-26.2,26.2
			c-3.4,12.7,0.1,26.4,9.5,35.7l87.6,87.6L839,699.3l-39.5-39.5c-5.6-5.6-14.6-6.8-22.2-4.8c-3.8,1-7.6,3.5-10.3,6.1
			c-2.7,2.7-4.9,6.3-5.9,10.1l-53.8,200.4c-2,7.6,0.1,15.8,5.6,21.3c5.6,5.6,13.6,7.8,21.2,5.7L934.5,845c7.6-2,14.4-8.9,16.5-16.5
			c2-7.6,0.8-16.6-4.8-22.2l-39.2-39.2l234.5-234.5l90.4,90.4c9.3,9.3,23,12.9,35.7,9.5c6.4-1.7,12.1-5.1,16.6-9.6
			C1288.7,618.4,1292,612.7,1293.7,606.3z"/>
		<path d="M-59.7,1377.7l-90,335.9c-3.4,12.7,0.2,26.3,9.5,35.7c9.3,9.3,22.9,13,35.6,9.6l335.8-90c12.7-3.4,22.5-13.2,25.9-25.9
			c3.4-12.7-0.4-26.1-9.7-35.5l-87.3-87.3l234.5-234.5l39.2,39.2c5.6,5.6,14.8,6.5,22.4,4.5c3.8-1,7.8-3.6,10.5-6.3
			c2.7-2.7,5-6.4,6-10.2l53.8-200.4c2-7.6-0.1-15.8-5.6-21.3c-5.6-5.6-13.6-7.8-21.2-5.7L299.5,1139c-7.6,2-14.7,9.1-16.7,16.7
			c-2,7.6-1,16.9,4.5,22.4l39.5,39.5L92.3,1452.2l-90.6-90.6c-9.3-9.3-22.7-13.2-35.5-9.7c-6.4,1.7-11.9,4.9-16.5,9.5
			C-54.8,1365.7-58,1371.3-59.7,1377.7z"/>
		<path d="M231.3,315.3l-335.9-90c-12.7-3.4-26.3,0.2-35.7,9.5c-9.3,9.3-13,22.9-9.6,35.6l90,335.8c3.4,12.7,13.4,22.7,26.1,26.1
			s26.3-0.2,35.7-9.5l87.2-87.2l234.5,234.5l-39.1,39.1c-5.6,5.6-6.7,14.6-4.7,22.2c1,3.8,3.5,7.7,6.2,10.4
			c2.7,2.7,6.3,4.9,10.1,5.9l200.4,53.8c7.6,2,15.8-0.1,21.3-5.6c5.6-5.6,7.8-13.6,5.7-21.2L470,674.5c-2-7.6-8.9-14.5-16.5-16.5
			s-16.7-0.8-22.2,4.7l-39.6,39.6L157.1,467.8l90.8-90.8c9.3-9.3,13-22.9,9.5-35.7c-1.7-6.4-5-12-9.6-16.6
			C243.4,320.3,237.7,317,231.3,315.3z"/>
		<path d="M1002.7,1668.7l335.9,90c12.7,3.4,26.3-0.2,35.7-9.5c9.3-9.3,13-22.9,9.6-35.6l-90-335.8c-3.4-12.7-13.3-22.6-26-26
			c-12.7-3.4-26.2,0.3-35.6,9.7l-87.7,87.7L910,1214.6l39.6-39.6c5.6-5.6,6.6-14.8,4.6-22.4c-1-3.8-3.6-7.7-6.2-10.4s-6.3-5-10.1-6
			l-200.4-53.8c-7.6-2-15.8,0.1-21.3,5.6s-7.8,13.6-5.7,21.2l53.6,200.2c2,7.6,9.1,14.6,16.7,16.7c7.6,2,16.8,1,22.3-4.6l39.1-39.1
			l234.5,234.5l-90.2,90.2c-9.3,9.3-13.1,22.8-9.7,35.5c1.7,6.4,5,12,9.5,16.5C990.7,1663.8,996.3,1667,1002.7,1668.7z"/>
	</g>
</g>
<g id="Layer_1_1_">
</g>
</svg>
