<?xml version="1.0" encoding="utf-8"?>
<!-- Generator: Adobe Illustrator 19.1.0, SVG Export Plug-In . SVG Version: 6.00 Build 0)  -->
<svg version="1.1" id="Layer_1" xmlns="http://www.w3.org/2000/svg" xmlns:xlink="http://www.w3.org/1999/xlink" x="0px" y="0px"
	 viewBox="521 -521 1792 1792" style="enable-background:new 521 -521 1792 1792;" xml:space="preserve">
<path d="M2124,77c-40.7-94.7-95.3-176.3-164-245c-68.7-68.7-150.3-123.3-245-164s-194-61-298-61c-98,0-192.8,18.5-284.5,55.5
	S959.3-248.3,888-181L758-310c-20-20.7-43-25.3-69-14c-26.7,11.3-40,31-40,59v448c0,17.3,6.3,32.3,19,45s27.7,19,45,19h448
	c28,0,47.7-13.3,59-40c11.3-26,6.7-49-14-69L1069,0c46.7-44,100-77.8,160-101.5c60-23.7,122.7-35.5,188-35.5
	c69.3,0,135.5,13.5,198.5,40.5S1733-33,1779,13s82.5,100.5,109.5,163.5S1929,305.7,1929,375s-13.5,135.5-40.5,198.5
	S1825,691,1779,737s-100.5,82.5-163.5,109.5S1486.3,887,1417,887c-79.3,0-154.3-17.3-225-52s-130.3-83.7-179-147
	c-4.7-6.7-12.3-10.7-23-12c-10,0-18.3,3-25,9L828,823c-5.3,5.3-8.2,12.2-8.5,20.5c-0.3,8.3,1.8,15.8,6.5,22.5
	c72.7,88,160.7,156.2,264,204.5s212.3,72.5,327,72.5c104,0,203.3-20.3,298-61s176.3-95.3,245-164s123.3-150.3,164-245s61-194,61-298
	S2164.7,171.7,2124,77z M1417,14.8c-27.6,0-50,22.4-50,50V375c0,0.8,0,1.7,0.1,2.5c0,0.4,0.1,0.7,0.1,1.1c0,0.4,0.1,0.9,0.1,1.3
	c0,0.5,0.1,1,0.2,1.4c0,0.3,0.1,0.7,0.1,1c0.1,0.5,0.2,1,0.3,1.5c0.1,0.3,0.1,0.6,0.2,0.8c0.1,0.5,0.2,1,0.3,1.6
	c0.1,0.3,0.1,0.5,0.2,0.8c0.1,0.5,0.3,1,0.4,1.5c0.1,0.3,0.2,0.6,0.2,0.9c0.1,0.5,0.3,0.9,0.4,1.4c0.1,0.3,0.2,0.7,0.3,1
	c0.1,0.4,0.3,0.8,0.5,1.2c0.1,0.4,0.3,0.7,0.4,1.1c0.1,0.4,0.3,0.7,0.5,1c0.2,0.4,0.4,0.8,0.6,1.2c0.1,0.3,0.3,0.6,0.4,0.9
	c0.2,0.4,0.4,0.9,0.7,1.3c0.1,0.3,0.3,0.5,0.4,0.8c0.3,0.5,0.5,0.9,0.8,1.4c0.1,0.2,0.3,0.5,0.4,0.7c0.3,0.5,0.6,0.9,0.9,1.4
	c0.2,0.2,0.3,0.4,0.5,0.7c0.3,0.4,0.6,0.9,0.9,1.3c0.2,0.2,0.4,0.5,0.6,0.7c0.3,0.4,0.6,0.8,0.9,1.2c0.3,0.3,0.5,0.6,0.8,0.9
	c0.3,0.3,0.5,0.6,0.8,0.9c0.5,0.6,1.1,1.1,1.6,1.7c0,0,0.1,0.1,0.1,0.1L1601,629.7c9.8,9.8,22.6,14.6,35.4,14.6s25.6-4.9,35.4-14.6
	c19.5-19.5,19.5-51.2,0-70.7L1467,354.3V64.8C1467,37.2,1444.6,14.8,1417,14.8z"/>
</svg>
