<svg xmlns="http://www.w3.org/2000/svg" viewBox="0 0 1639.9 1616"><title>backup</title><path d="M1587.95,288V1328q0,119-84.5,203.5t-203.5,84.5h-960q-119,0-203.5-84.5T51.95,1328V288q0-119,84.5-203.5T339.95,0h960q119,0,203.5,84.5T1587.95,288Z"/><path d="M817.71,182.87c-236.66,0-428.58,191.9-428.58,428.58H246.26L436.73,801.91,627.21,611.44H484.36c0-184.32,149-333.33,333.33-333.33S1151,427.15,1151,611.44,1002,944.77,817.68,944.77c-71.9,0-138.57-23.34-193.33-61.9l-67.62,68.57c72.39,55.24,162.85,88.57,261,88.57,236.66,0,428.58-191.9,428.58-428.58S1054.34,182.87,817.71,182.87Z" style="fill:#fff"/><rect y="1222.88" width="1639.9" height="75.01" style="fill:#fff"/></svg>