<svg xmlns="http://www.w3.org/2000/svg" viewBox="0 0 1536 1616"><title>backup</title><path d="M1503.45,84.5Q1418.95,0,1299.95,0H340Q221,0,136.45,84.5T52,288v934.88h1536V288Q1587.95,169,1503.45,84.5ZM817.73,1040c-98.15,0-188.61-33.33-261-88.57l67.62-68.57c54.76,38.56,121.43,61.9,193.33,61.9,184.32,0,333.32-149,333.32-333.33S1002,278.11,817.69,278.11s-333.33,149-333.33,333.33H627.21L436.73,801.91,246.26,611.45H389.13c0-236.68,191.92-428.58,428.58-428.58s428.6,191.88,428.6,428.56S1054.39,1040,817.73,1040ZM52,1328q0,119,84.5,203.5t203.5,84.5h960q119,0,203.5-84.5t84.5-203.5v-30.11H52V1328Z" transform="translate(-51.95)"/></svg>