<?xml version="1.0" encoding="utf-8"?>

<svg version="1.0" id="Layer_1" xmlns="http://www.w3.org/2000/svg" xmlns:xlink="http://www.w3.org/1999/xlink" x="0px" y="0px"
	 viewBox="0 0 1792 1792" enable-background="new 0 0 1792 1792" xml:space="preserve">
<path d="M965.8,1664c90.5-7.6,175.6-31.6,255.3-68.7l-255.3-440.7V1664z M826.2,128c-90.5,7.6-176.7,31.6-255.3,68.7l255.3,440.7
	V128z M1154.5,965.8l441.8,254.2c36-78.5,60-163.6,67.6-254.2H1154.5z M196.7,572c-37.1,78.5-60,163.6-68.7,254.2h510.5L196.7,572z
	 M128,965.8c8.7,90.5,31.6,175.6,68.7,254.2l441.8-254.2H128z M1664,826.2c-7.6-90.5-31.6-175.6-67.6-254.2l-441.8,254.2H1664z
	 M1341.1,1528.7c72-51.3,135.3-114.5,186.5-186.5l-441.8-255.3L1341.1,1528.7z M1527.6,452c-51.3-72-114.5-135.3-186.5-186.5
	l-254.2,441.8L1527.6,452z M570.9,1595.3c78.5,37.1,164.7,61.1,255.3,68.7v-509.5L570.9,1595.3z M1221.1,196.7
	c-79.6-37.1-164.7-61.1-255.3-68.7v509.5L1221.1,196.7z M450.9,265.5C377.8,316.7,314.5,380,264.4,452l440.7,255.3L450.9,265.5z
	 M264.4,1342.2c50.2,72,113.5,135.3,186.5,186.5l254.2-441.8L264.4,1342.2z"/>
</svg>
