<svg xmlns="http://www.w3.org/2000/svg" viewBox="0 0 1792 1314.2"><title>cloud-upload</title><path d="M1194.7,861.9c0-8.7-2.8-15.9-8.4-21.5L857.7,511.9c-5.6-5.6-12.8-8.4-21.5-8.4s-15.9,2.8-21.5,8.4L487.2,839.5c-6.2,7.5-9.3,14.9-9.3,22.4,0,8.7,2.8,15.9,8.4,21.5s12.8,8.4,21.5,8.4H716.9v328.5a30.4,30.4,0,0,0,29.9,29.9H926a30.4,30.4,0,0,0,29.9-29.9V891.7H1165A30,30,0,0,0,1194.7,861.9ZM1792,1130.7q0,148.35-105,253.4t-253.4,105H418.1q-172.65,0-295.4-122.7Q0,1243.55,0,1070.9q0-121.35,65.3-224t175.5-154c-1.2-18.7-1.9-32-1.9-40.1q0-197.85,140-337.9t337.9-140q145.65,0,266.5,81.2t175.9,215.6q66.3-57.9,154.9-57.9,99,0,168.9,70t70,168.9q0,70.95-38.3,128.8Q1636.05,810.45,1714,908T1792,1130.7Z" transform="translate(0 -174.9)"/></svg>