<?xml version="1.0" encoding="utf-8"?>

<svg version="1.0" id="Layer_1" xmlns="http://www.w3.org/2000/svg" xmlns:xlink="http://www.w3.org/1999/xlink" x="0px" y="0px"
	 viewBox="0 0 1792 1792" enable-background="new 0 0 1792 1792" xml:space="preserve">
<g id="Compliance">
	<g id="Compliance_x2F_Audit">
		<rect x="541.2" y="1110.9" width="444.6" height="79.4"/>
		<g>
			<g>
				<path d="M263.2,492.8h194v-194h-194V492.8z M263.2,725.6h194v-194h-194V725.6z M263.2,958.3h194v-194h-194V958.3z M301.9,803.2
					h116.4v116.4H301.9V803.2z M263.2,1191.1h194v-194h-194V1191.1z M542.5,298.8v77.6h698.3v-77.6H542.5z M985.8,415.2H542.5v77.6
					h443.3L985.8,415.2L985.8,415.2z M542.5,609.2h698.3v-77.6H542.5C542.5,531.6,542.5,609.2,542.5,609.2z M985.8,648H542.5v77.6
					h443.3L985.8,648L985.8,648z M542.5,842h698.3v-77.6H542.5C542.5,764.4,542.5,842,542.5,842z M542.5,958.3h443.3v-77.6H542.5
					V958.3z"/>
			</g>
		</g>
		<g>
			<path d="M935,1410.5c0-16.5,0.9-32.8,2.7-48.6H182.5V145.7h1125.4v833.4c19.7-3.1,42.3-4.7,64-4.7c18.4,0,34.7,1.1,54.4,3.4
				V106.7c0-43.9-36.7-79.4-80.6-79.4H143c-43.9,0-79,35.6-79,79.4v1294c0,43.9,35.2,79.7,79,79.7h797.6
				C936.9,1456.7,935,1434.3,935,1410.5z"/>
		</g>
		<path d="M1372,1052.7c-196.3,0-356,159.7-356,356s159.7,356,356,356s356-159.7,356-356S1568.3,1052.7,1372,1052.7z M1356.1,1525.3
			l-52.1,52.1l-55.9-55.9l-88.5-88.5l52.1-52.1l88.5,88.5l225.5-225.5l55.9,55.9L1356.1,1525.3z"/>
		<path d="M1233.4,994.7H541.8v79h550.3C1133.4,1038.2,1181.2,1014.5,1233.4,994.7z"/>
	</g>
</g>
<g id="Layer_1_1_">
</g>
</svg>
