<?xml version="1.0" encoding="utf-8"?>
<!-- Generator: Adobe Illustrator 19.1.0, SVG Export Plug-In . SVG Version: 6.00 Build 0)  -->
<svg version="1.0" id="Layer_1" xmlns="http://www.w3.org/2000/svg" xmlns:xlink="http://www.w3.org/1999/xlink" x="0px" y="0px"
	 viewBox="-259 106 1792 1792" enable-background="new -259 106 1792 1792" xml:space="preserve">
<g id="Control_Portal">
	<g id="control_portal">
		<g>
			<path d="M1393.4,340.2H-119.4c-41.8,0-75.6,33.9-75.6,75.6v1172.4c0,41.8,33.9,75.6,75.6,75.6h1512.7c41.8,0,75.6-33.9,75.6-75.6
				V415.8C1469,374,1435.1,340.2,1393.4,340.2z M1393.4,1584.4H-119.4V415.8h1512.7V1584.4z M674.8,1176h56.9
				c7.4,0,14.2-4.3,17.2-11.1l9.7-21.4l27.9,59.7c3.4,7.3,11.1,11.7,19.1,10.8c8-0.9,14.6-6.7,16.4-14.6l18.6-81.5l29.6,160.3
				c1.6,8.7,9.1,15.2,18,15.5c8.8,0.4,16.8-5.6,19-14.2l27.1-106.5c3,2,6.7,3.2,10.5,3.2h66.8c7.4,0,14.2-4.3,17.2-11.1l9.7-21.4
				l27.9,59.7c3.4,7.3,11.1,11.7,19.1,10.8c8-0.9,14.6-6.7,16.4-14.6l18.6-81.5l29.6,160.3c1.6,8.7,9.1,15.2,18,15.5
				c0.2,0,0.4,0,0.6,0c8.6,0,16.2-5.8,18.3-14.2l27.1-106.5c3,2,6.7,3.2,10.5,3.2h66.6c10.4,0,18.9-8.5,18.9-18.9
				c0-10.4-8.5-18.9-18.9-18.9h-55.4l-12.4-22.4c-3.7-6.8-11.3-10.6-19-9.6c-7.7,1-14,6.6-15.9,14.1l-16.9,66.3l-30.5-165.6
				c-1.6-8.8-9.2-15.3-18.2-15.5c-8.9-0.1-16.8,5.8-18.8,14.6l-26.8,116.9l-22-47.5c-3.1-6.7-9.8-11.7-17.1-11.7h-0.1
				c-7.4,0-14.1,5.2-17.1,11.9l-21.6,48.6H956l-12.4-22.4c-3.7-6.8-11.3-10.6-19-9.6c-7.7,1-14,6.6-15.9,14.1l-16.9,66.3
				l-30.5-165.6c-1.6-8.8-9.2-15.3-18.2-15.5c-9-0.1-16.8,5.8-18.8,14.6l-26.8,116.9l-22-47.5c-3.1-6.7-9.8-11.7-17.1-11.7h-0.1
				c-7.4,0-14.1,5.2-17.1,11.9l-21.6,48.6h-44.7c-10.4,0-18.9,8.5-18.9,18.9C655.9,1167.5,664.4,1176,674.8,1176z M674.8,820.5h56.9
				c7.4,0,14.2-4.3,17.2-11.1l9.7-21.4l27.9,59.7c3.4,7.3,11.1,11.6,19.1,10.8c8-0.9,14.6-6.7,16.4-14.6l18.6-81.5l29.6,160.3
				c1.6,8.7,9.1,15.2,18,15.5c8.8,0.3,16.8-5.6,19-14.2l27.1-106.5c3,2,6.7,3.2,10.5,3.2h66.8c7.4,0,14.2-4.3,17.2-11.1l9.7-21.4
				l27.9,59.7c3.4,7.3,11.1,11.6,19.1,10.8c8-0.9,14.6-6.7,16.4-14.6l18.6-81.5l29.6,160.3c1.6,8.7,9.1,15.2,18,15.5
				c0.2,0,0.4,0,0.6,0c8.6,0,16.2-5.8,18.3-14.2l27.1-106.5c3,2,6.7,3.2,10.5,3.2h66.6c10.4,0,18.9-8.5,18.9-18.9
				s-8.5-18.9-18.9-18.9h-55.4l-12.4-22.4c-3.7-6.8-11.3-10.6-19-9.6c-7.7,1-14,6.6-15.9,14.1l-16.9,66.3l-30.5-165.6
				c-1.6-8.8-9.2-15.3-18.2-15.5c-8.9-0.1-16.8,5.8-18.8,14.6l-26.8,116.9l-22-47.5c-3.1-6.7-9.8-11.7-17.1-11.7h-0.1
				c-7.4,0-14.1,5.2-17.1,11.9l-21.6,48.6H956l-12.4-22.4c-3.7-6.8-11.3-10.6-19-9.6c-7.7,1-14,6.6-15.9,14.1l-16.9,66.3
				l-30.5-165.6c-1.6-8.8-9.2-15.3-18.2-15.5c-9-0.1-16.8,5.8-18.8,14.6l-26.8,116.9l-22-47.5c-3.1-6.7-9.8-11.7-17.1-11.7h-0.1
				c-7.4,0-14.1,5.2-17.1,11.9l-21.6,48.6h-44.7c-10.4,0-18.9,8.5-18.9,18.9C655.9,812,664.4,820.5,674.8,820.5z M304.2,1512.5
				h1009.7v-151.3H304.2V1512.5z M1359.3,453.6H-77.8v151.3h1437.1V453.6z M451.7,945.3c83.5,0,151.3-67.7,151.3-151.3
				s-67.7-151.3-151.3-151.3S300.4,710.5,300.4,794S368.1,945.3,451.7,945.3z M451.7,718.4c41.7,0,75.6,33.9,75.6,75.6
				s-33.9,75.6-75.6,75.6s-75.6-33.9-75.6-75.6S410,718.4,451.7,718.4z M451.7,1300.8c83.5,0,151.3-67.7,151.3-151.3
				c0-83.5-67.7-151.3-151.3-151.3s-151.3,67.7-151.3,151.3C300.4,1233,368.1,1300.8,451.7,1300.8z M451.7,1073.9
				c41.7,0,75.6,33.9,75.6,75.6c0,41.7-33.9,75.6-75.6,75.6s-75.6-33.9-75.6-75.6C376.1,1107.8,410,1073.9,451.7,1073.9z
				 M224.8,1436.9H-77.8v75.6h302.5V1436.9z M224.8,1210H-77.8v75.6h302.5V1210z M224.8,1323.5H-77.8v75.6h302.5V1323.5z
				 M224.8,1096.5H-77.8v75.6h302.5V1096.5z M224.8,869.6H-77.8v75.6h302.5V869.6z M224.8,983.1H-77.8v75.6h302.5V983.1z
				 M224.8,756.2H-77.8v75.6h302.5V756.2z M224.8,642.7H-77.8v75.6h302.5V642.7z"/>
		</g>
	</g>
</g>
<g id="Layer_1_1_">
</g>
</svg>
