<svg version="1.1" xmlns="http://www.w3.org/2000/svg" xmlns:xlink="http://www.w3.org/1999/xlink" x="0px" y="0px"
	 viewBox="-235 201 278 350" style="enable-background:new -235 201 278 350;" xml:space="preserve">
<path d="M43,434.5C42.1,454.7-19.8,471-96,471c-76.8,0-139-16.6-139-37h0v80h0c0,20.4,62.2,37,139,37s139-16.6,139-37
	c0-0.2,0-0.3,0-0.5V434.5z M43,336.5C42.1,356.7-19.8,373-96,373c-76.8,0-139-16.6-139-37h0v80h0c0,20.4,62.2,37,139,37
	s139-16.6,139-37c0-0.2,0-0.3,0-0.5V336.5z M43,238.5c0-0.2,0-0.3,0-0.5c0-20.4-62.2-37-139-37s-139,16.6-139,37h0v80h0
	c0,20.4,62.2,37,139,37s139-16.6,139-37c0-0.2,0-0.3,0-0.5V238.5z"/>
</svg>
