<?xml version="1.0" encoding="iso-8859-1"?>
<!-- Generator: Adobe Illustrator 18.0.0, SVG Export Plug-In . SVG Version: 6.00 Build 0)  -->
<!DOCTYPE svg PUBLIC "-//W3C//DTD SVG 1.1//EN" "http://www.w3.org/Graphics/SVG/1.1/DTD/svg11.dtd">
<svg version="1.1" xmlns="http://www.w3.org/2000/svg" xmlns:xlink="http://www.w3.org/1999/xlink" x="0px" y="0px"
   viewBox="0 0 278.021 350" style="enable-background:new 0 0 278.021 350;" xml:space="preserve">
<g id="Database">
  <g id="database">
    <g>
      <path style="fill:#000000;" d="M277.979,233.451C277.07,253.677,215.202,270,139,270C62.232,270,0,253.435,0,233h-0.021v80H0
        c0,20.435,62.232,37,139,37s139-16.565,139-37c0-0.151-0.015-0.3-0.021-0.451V233.451z M277.979,135.451
        C277.07,155.677,215.202,172,139,172C62.232,172,0,155.435,0,135h-0.021v80H0c0,20.435,62.232,37,139,37s139-16.565,139-37
        c0-0.151-0.015-0.3-0.021-0.451V135.451z M277.979,37.451C277.985,37.3,278,37.151,278,37c0-20.435-62.232-37-139-37
        S0,16.565,0,37h-0.021v80H0c0,20.435,62.232,37,139,37s139-16.565,139-37c0-0.151-0.015-0.3-0.021-0.451V37.451z"/>
    </g>
  </g>
</g>
<g id="Layer_1">
</g>
</svg>
