<?xml version="1.0" encoding="utf-8"?>
<!-- Generator: Adobe Illustrator 19.1.0, SVG Export Plug-In . SVG Version: 6.00 Build 0)  -->
<svg version="1.0" id="Layer_1" xmlns="http://www.w3.org/2000/svg" xmlns:xlink="http://www.w3.org/1999/xlink" x="0px" y="0px"
	 viewBox="-259 99 1792 1792" enable-background="new -259 99 1792 1792" xml:space="preserve">
<g id="Flexibility">
	<g id="Flexibility_1_">
		<path d="M169.2,929.2v-77.4c0-10.5-5.8-20.3-14.9-25.6c-4.6-2.6-9.7-4-14.8-4c-5.1,0-10.2,1.3-14.8,4l-240.9,139.1
			c-9.1,5.3-14.8,15-14.8,25.6c0,10.5,5.6,20.3,14.8,25.6l240.9,139.1c9.1,5.3,20.5,5.3,29.7,0c9.1-5.3,14.9-15,14.9-25.6v-78.3
			c160.6,17.2,277.4,100.6,346.7,248.3c61.2,130.5,62.6,265.7,62.6,268.5c0,33.5,27.1,62,60.7,62c0,0,0,0,0,0
			c33.6,0,60.8-28.5,60.8-62c0-6.5-0.6-161.4-72.2-316.7C564.3,1114,434.5,951.9,169.2,929.2z"/>
		<path d="M499.8,660h77.8v415.8c20.9,26.3,43.4,55.1,62,86.1c18.2-30.2,39.2-58.2,60.1-83.9V660H778c10.5,0,20.3-5.9,25.6-15
			c2.6-4.6,4-9.8,4-14.9c0-5.1-1.3-10.3-4-14.8L664.5,374.3c-5.3-9.1-15-14.8-25.6-14.8s-20.3,5.6-25.6,14.7L474.2,615.1
			c-5.3,9.1-5.3,20.7,0,29.8C479.5,654.1,489.3,660,499.8,660z"/>
		<path d="M1390.2,965.2l-240.9-139.1c-9.1-5.3-20.5-5.3-29.7,0c-9.1,5.3-14.9,15-14.9,25.6v78c-237.4,22.3-367.4,158.8-435.9,286.5
			c2.2,4.5,4.3,9,6.4,13.5c25.4,55,42.3,110,53.8,159.3c8.2-27.9,18.8-57.2,32.3-86.4c68.3-148.2,182.9-232.3,343.4-250.7v78
			c0,10.5,5.8,20.3,14.9,25.6c4.6,2.6,9.7,4,14.8,4s10.2-1.3,14.8-4l240.9-139.1c9.1-5.3,14.8-15,14.8-25.6
			C1405,980.3,1399.4,970.5,1390.2,965.2z"/>
	</g>
</g>
<g id="Layer_1_1_">
</g>
</svg>
