<svg xmlns="http://www.w3.org/2000/svg" viewBox="0 0 1664 1408"><title>group-smart</title><path d="M1662,450q-66-66-158-66H832V352q0-92-66-158T608,128H288q-92,0-158,66T64,352v960q0,92,66,158t158,66H1504q92,0,158-66t66-158V608Q1728,516,1662,450Zm-382,566.5a19.27,19.27,0,0,1-4,11.5,15.22,15.22,0,0,1-10,6.5l-92.5,14q-9.5,27-19.5,45.5,17.5,25,53.5,69,5,6,5,12.5a16.69,16.69,0,0,1-4.5,11.5q-13.5,18.5-49.5,54t-47,35.5q-6,0-13-4.5l-69-54a285.28,285.28,0,0,1-45.5,19q-8,68-14.5,93-3.5,14-18,14h-111a18.89,18.89,0,0,1-12.25-4.25A14.81,14.81,0,0,1,822.5,1329l-14-92a309,309,0,0,1-45-18.5L693,1272a18,18,0,0,1-12.5,4.5A17.23,17.23,0,0,1,668,1271q-63-57-82.5-84a19.56,19.56,0,0,1-3.5-11.5,19.27,19.27,0,0,1,4-11.5q7.5-10.5,25.5-33.25t27-35.25A247.4,247.4,0,0,1,618,1046l-91.5-13.5a15.76,15.76,0,0,1-10.5-6.25,18.91,18.91,0,0,1-4-11.75v-111a19.27,19.27,0,0,1,4-11.5q4-5.5,9.5-6.5l93-14a247,247,0,0,1,19.5-46q-20-28.5-53.5-69-5-6-5-12,0-5,4.5-11.5,13-18,49.25-53.75T680.5,643.5q6.5,0,13,5l69,53.5A285.28,285.28,0,0,1,808,683q8-68,14.5-93,3.5-14,18-14h111a18.89,18.89,0,0,1,12.25,4.25A14.81,14.81,0,0,1,969.5,591l14,92a309,309,0,0,1,45,18.5l71-53.5q4.5-4.5,12-4.5,6.5,0,12.5,5,64.5,59.5,82.5,85,3.5,4,3.5,11a19.27,19.27,0,0,1-4,11.5q-7.5,10.5-25.5,33.25t-27,35.25a301.24,301.24,0,0,1,20.5,49l91.5,14a15.76,15.76,0,0,1,10.5,6.25,18.91,18.91,0,0,1,4,11.75v111ZM896,832q-53,0-90.5,37.5T768,960q0,53,37.5,90.5T896,1088q53,0,90.5-37.5T1024,960q0-53-37.5-90.5T896,832Z" transform="translate(-64 -128)"/></svg>