<svg version="1.0" xmlns="http://www.w3.org/2000/svg" xmlns:xlink="http://www.w3.org/1999/xlink" x="0px" y="0px"
	 viewBox="-260 61.5 1792 1792" enable-background="new -260 61.5 1792 1792" xml:space="preserve">
	<path id="Global_x5F_Network_1_" d="M1179.1,414.5C1034,269.4,841.1,189.5,636,189.5S238,269.4,92.9,414.5S-132,752.4-132,957.5
		s79.9,398,224.9,543.1C238,1645.6,430.9,1725.5,636,1725.5s398-79.9,543.1-224.9c145.1-145.1,224.9-337.9,224.9-543.1
		S1324.1,559.5,1179.1,414.5z M-50,1003.9h235.2c3.2,98.1,17.1,192.7,40.7,280.2H30.1C-15.3,1196.6-43.5,1102-50,1003.9z
		 M670.2,555.5V273.3c84.1,14.7,159.6,81.8,221.1,190.6c16,28.2,30.8,56.6,43.6,91.6C934.9,555.5,670.2,555.5,670.2,555.5z
		 M962.7,636.1c25.9,87.6,40.9,185.7,43.8,287.3H670.2V636.1C670.2,636.1,962.7,636.1,962.7,636.1z M589.6,275.4v280.1H337.1
		c12.8-35,26.8-63.4,42.7-91.6C438.7,359.7,512.6,293.7,589.6,275.4z M589.6,636.1v287.3H265.6c2.9-101.6,17.9-199.7,43.8-287.3
		C309.3,636.1,589.6,636.1,589.6,636.1z M185,923.3H-50.5c5.4-105.1,33.8-203.2,80.1-287.3h196C201.6,723.6,187.7,821.7,185,923.3z
		 M265.8,1003.9h323.8v280.2H309.6C284.2,1196.6,269.3,1102,265.8,1003.9z M589.6,1364.7v274.9c-77.1-18.3-150.9-82.1-209.8-186.3
		c-15.8-28-29.7-57.1-42.4-88.7L589.6,1364.7L589.6,1364.7z M670.2,1641.8v-277.1h264.3c-12.7,31.5-27.5,60.6-43.3,88.7
		C829.8,1562.2,754.3,1627.1,670.2,1641.8z M670.2,1284.1v-280.2h335.9c-3.4,98.1-18.4,192.7-43.7,280.2H670.2z M1086.8,1003.9H1322
		c-6.4,98.1-34.7,192.7-80.1,280.2h-195.8C1069.7,1196.6,1083.6,1102,1086.8,1003.9z M1087,923.3c-2.7-101.6-16.6-199.7-40.7-287.3
		h196c46.3,84.1,74.7,182.2,80.1,287.3H1087z M1191.7,555.5H1021c-16.8-49-36.5-91.2-59.2-131.3c-22.6-39.9-47.3-74.5-73.7-104.6
		C1010.3,367.9,1115.3,450.4,1191.7,555.5z M383.9,319.1c-26.5,30.1-51.2,65.8-73.7,105.7c-22.6,40-42.4,81.7-59.2,130.7H80.3
		C156.7,450.4,261.7,367.4,383.9,319.1z M80.9,1364.7h170.4c16.7,45.5,36.4,88.5,58.9,128.3c22.6,39.9,47.3,75.6,73.7,105.7
		C262,1550.5,157.2,1466.3,80.9,1364.7z M888.1,1598.2c26.5-30.1,51.2-64.7,73.7-104.6c22.5-39.8,42.2-83.3,58.9-128.8h170.3
		C1114.8,1466.3,1010,1550,888.1,1598.2z"/>
</svg>
