<?xml version="1.0" encoding="utf-8"?>
<!-- Generator: Adobe Illustrator 19.1.0, SVG Export Plug-In . SVG Version: 6.00 Build 0)  -->
<svg version="1.0" id="heart" xmlns="http://www.w3.org/2000/svg" xmlns:xlink="http://www.w3.org/1999/xlink" x="0px" y="0px"
	 viewBox="416 -616 1792 1792" enable-background="new 416 -616 1792 1792" xml:space="preserve">
<path d="M1312,1048c-17.3,0-32-6-44-18L644,428c-6.7-5.3-15.8-14-27.5-26s-30.2-33.8-55.5-65.5s-48-64.2-68-97.5
	s-37.8-73.7-53.5-121S416,24.7,416-20c0-146.7,42.3-261.3,127-344s201.7-124,351-124c41.3,0,83.5,7.2,126.5,21.5s83,33.7,120,58
	s68.8,47.2,95.5,68.5c26.7,21.3,52,44,76,68c24-24,49.3-46.7,76-68c26.7-21.3,58.5-44.2,95.5-68.5s77-43.7,120-58
	S1688.7-488,1730-488c149.3,0,266.3,41.3,351,124c84.7,82.7,127,197.3,127,344c0,147.3-76.3,297.3-229,450l-623,600
	C1344,1042,1329.3,1048,1312,1048z"/>
</svg>
