<?xml version="1.0" encoding="utf-8"?>

<svg version="1.0" id="Layer_1" xmlns="http://www.w3.org/2000/svg" xmlns:xlink="http://www.w3.org/1999/xlink" x="0px" y="0px"
	 viewBox="0 0 1792 1792" enable-background="new 0 0 1792 1792" xml:space="preserve">
<path d="M960,1088v78h256v-78H960z M576,832v78h256v-78H576z M320,480v832c0,104,56,160,160,160h832c104,0,160-56,160-160V480
	c0-104-56-160-160-160H480C376,320,320,376,320,480z M576,576v78h512v-78H576z M320,573H138c-41,0-74,3-74,44c0,38,33,38,74,38h182
	V573z M320,1085H138c-41,0-74,3-74,44s33,38,74,38h182V1085z M320,829H138c-41,0-74,3-74,44c0,38,33,38,74,38h182V829z M1654,576
	h-182v82h182c41,0,74,0,74-41S1695,576,1654,576z M1654,1088h-182v82h182c41,0,74-3,74-41C1728,1088,1695,1088,1654,1088z M1654,832
	h-182v82h182c41,0,74-3,74-41C1728,832,1695,832,1654,832z M576,1472v182c0,41-5,74,36,74s36-33,36-74v-182H576z M1088,1472v182
	c0,41-5,74,36,74s36-33,36-74v-182H1088z M832,1472v182c0,41-5,74,36,74s36-33,36-74v-182H832z M576,138v182h72V138c0-41,5-74-36-74
	S576,97,576,138z M1088,138v182h72V138c0-41,5-74-36-74S1088,97,1088,138z M832,138v182h72V138c0-41,5-74-36-74S832,97,832,138z
	 M579,448l634,3c75,0,131,56,131,131v634c0,75-56,131-131,131l-634-3c-75,0-131-56-131-131V579C448,504,504,448,579,448z"/>
</svg>
