<?xml version="1.0" encoding="utf-8"?>

<svg version="1.0" id="Layer_1" xmlns="http://www.w3.org/2000/svg" xmlns:xlink="http://www.w3.org/1999/xlink" x="0px" y="0px"
	 viewBox="0 0 1792 1792" enable-background="new 0 0 1792 1792" xml:space="preserve">
<path d="M407.3,1384.7c-38.5,0-69.8,31.3-69.8,69.8s31.3,69.8,69.8,69.8c38.5,0,69.8-31.3,69.8-69.8S445.8,1384.7,407.3,1384.7z
	 M1644,1245.1H148c-11,0-20,9-20,20V1644c0,11,9,20,20,20h1496c11,0,20-9,20-20v-378.9C1664,1254,1655,1245.1,1644,1245.1z
	 M407.3,1594.2c-77.1,0-139.6-62.5-139.6-139.6s62.5-139.6,139.6-139.6s139.6,62.5,139.6,139.6S484.4,1594.2,407.3,1594.2z
	 M758.1,1526.1c-38.6,0-69.8-31.3-69.8-69.8s31.3-69.8,69.8-69.8s69.8,31.3,69.8,69.8S796.7,1526.1,758.1,1526.1z M932.7,1526.1
	c-38.6,0-69.8-31.3-69.8-69.8s31.3-69.8,69.8-69.8s69.8,31.3,69.8,69.8S971.2,1526.1,932.7,1526.1z M1107.2,1526.1
	c-38.6,0-69.8-31.3-69.8-69.8s31.3-69.8,69.8-69.8c38.6,0,69.8,31.3,69.8,69.8S1145.8,1526.1,1107.2,1526.1z M1281.7,1526.1
	c-38.6,0-69.8-31.3-69.8-69.8s31.3-69.8,69.8-69.8c38.6,0,69.8,31.3,69.8,69.8S1320.3,1526.1,1281.7,1526.1z M1456.3,1526.1
	c-38.6,0-69.8-31.3-69.8-69.8s31.3-69.8,69.8-69.8s69.8,31.3,69.8,69.8S1494.9,1526.1,1456.3,1526.1z M697,694.6l312.1,262.6
	L976.9,995l161.8,7l-35.1-158.3l-31.8,38.4L817.1,669H1043v48.2l97-97V746h248V498h-248v118.6l-97-97V596H801.5l270.3-227.9
	l31.8,37.2l35-158.6l-162,6.8l32.6,37.8L697,553.9V421H400v398h297V694.6z M1388,128h-248v248h248V128z M1140,1116h248V868h-248
	V1116z"/>
</svg>
