<?xml version="1.0" encoding="utf-8"?>

<svg version="1.0" id="Layer_1" xmlns="http://www.w3.org/2000/svg" xmlns:xlink="http://www.w3.org/1999/xlink" x="0px" y="0px"
	 viewBox="0 0 1792 1792" enable-background="new 0 0 1792 1792" xml:space="preserve">
<path d="M1278,128v386h386V128H1278z M1278,890.5V1089h386V703h-386V890.5z M1278,1664h386v-386h-386V1664z M1124,857H751.8
	L1172,502l49.4,57.6l54.4-246.8l-251.9,10.5l50.5,58.7L589,790.1V584H128v619h461v-194.1l485.4,408.3l-50,58.8l251.7,10.8
	l-54.6-246.2l-49.5,58.2L776,966h348v78.1l153.6-153.6L1124,736.9V857z"/>
</svg>
