<?xml version="1.0" encoding="utf-8"?>

<svg version="1.0" id="Layer_1" xmlns="http://www.w3.org/2000/svg" xmlns:xlink="http://www.w3.org/1999/xlink" x="0px" y="0px"
	 viewBox="-720 722 1792 1792" enable-background="new -720 722 1792 1792" xml:space="preserve">
<polygon points="790.4,2031.3 790.4,1656.6 790.4,1656.6 790.4,1626.8 220.1,1626.8 220.1,1374.5 527.6,1374.5 527.6,850.2 
	-175.6,850.2 -175.6,1374.5 131.5,1374.5 131.5,1626.8 -438.4,1626.8 -438.4,1715.4 -438.4,1715.4 -438.4,2031.3 -592,2031.3 
	-592,2385.8 -196.3,2385.8 -196.3,2031.3 -349.8,2031.3 -349.8,1715.4 131.5,1715.4 131.5,2031.3 -22.1,2031.3 -22.1,2385.8 
	373.6,2385.8 373.6,2031.3 220.1,2031.3 220.1,1715.4 701.8,1715.4 701.8,2031.3 548.3,2031.3 548.3,2385.8 944,2385.8 944,2031.3 
	"/>
</svg>
