<svg width="1792" height="1792" xmlns="http://www.w3.org/2000/svg" viewBox="590 1292 1792 1792">
<path d="M2075.4,2227.9c-7.8,68.7-65.8,120.5-134.8,120.5c-5.2,0-10.5-0.3-15.7-0.9c-35.9-4.1-66.8-22-88.4-47.6
	c-21.4-25.4-33.4-58.4-31.8-93.6c0.1-3.1,0.2-6.1,0.6-9.2c1.7-14.9,5.9-28.9,11.9-41.8c14.4-31,40-55.5,71.4-68.4
	c15.9-6.6,33.3-10.3,51.5-10.3c5.2,0,10.5,0.3,15.7,0.9C2030.2,2085.9,2083.9,2153.4,2075.4,2227.9z M2328.5,2492.2
	c-168,465.3-681.4,706.3-1146.7,538.3c-465.3-168-706.3-681.4-538.3-1146.7c168-465.3,681.4-706.3,1146.7-538.3
	S2496.5,2026.9,2328.5,2492.2z M1964.2,2003.7c-8.1-0.9-16.1-1.4-24.1-1.4c-37.9,0-73.9,10.4-105.1,28.5l-201.2-210.4
	c41.7-74.4,18.1-169.2-55-214.7c-75.3-46.9-174.4-23.9-221.3,51.4c-46.9,75.3-23.9,174.4,51.4,221.3c47.7,29.7,105,31.3,152.5,9.3
	l202.1,211.3c-16.8,26.2-28.1,56.5-31.9,89.5c-1.6,14.4-1.8,28.7-0.6,42.6l-375.5,127.3c-36.3-60.5-99.1-104.2-174.6-112.8
	c-128.8-14.7-245.2,77.8-259.9,206.6c-14.7,128.8,77.8,245.2,206.6,259.9c128.8,14.7,245.2-77.8,259.9-206.6
	c2.1-18.2,1.8-36-0.2-53.5l375.5-127.3c32.8,51.8,87.9,88.9,153.6,96.4c8.1,0.9,16.1,1.4,24.1,1.4c105.4,0,196.2-79.1,208.5-186.3
	C2162.2,2121,2079.4,2016.9,1964.2,2003.7z"/>
</svg>
