<?xml version="1.0" encoding="utf-8"?>
<!-- Generator: Adobe Illustrator 19.1.0, SVG Export Plug-In . SVG Version: 6.00 Build 0)  -->
<svg version="1.0" id="Layer_1" xmlns="http://www.w3.org/2000/svg" xmlns:xlink="http://www.w3.org/1999/xlink" x="0px" y="0px"
	 viewBox="-721 697.4 1792 1792" enable-background="new -721 697.4 1792 1792" xml:space="preserve">
<path d="M845.8,998.3h-0.2c-7.9-95.8-305.1-172.9-670.6-172.9s-662.6,77-670.6,172.9h-0.2l0.1,1.2c-0.1,0.9-0.1,1.8-0.1,2.8
	c0,4.7,0.7,9.3,2,13.9l138.3,1203.6c0,0.4-0.1,0.7-0.1,1.1c0,77.7,238.8,140.7,533.4,140.7s533.4-63,533.4-140.7l132.6-1205.1
	c1.3-4.4,1.9-8.9,1.9-13.4c0-0.9-0.1-1.8-0.1-2.7L845.8,998.3z M178,1185.2c-294.7,0-533.6-63-533.6-140.7S-116.6,903.9,178,903.9
	s533.6,63,533.6,140.7S472.7,1185.2,178,1185.2z"/>
</svg>
