<?xml version="1.0" encoding="utf-8"?>
<!-- Generator: Adobe Illustrator 19.1.0, SVG Export Plug-In . SVG Version: 6.00 Build 0)  -->
<svg version="1.0" id="Layer_1" xmlns="http://www.w3.org/2000/svg" xmlns:xlink="http://www.w3.org/1999/xlink" x="0px" y="0px"
	 viewBox="-707 692.5 1792 1792" enable-background="new -707 692.5 1792 1792" xml:space="preserve">
<path d="M780.3,1211c35.8-20.5,35.8-54,0-74.4L254.1,835.9c-35.8-20.5-94.5-20.5-130.3,0l-526.2,300.7c-35.8,20.5-35.8,54,0,74.4
	l526.2,300.7c35.8,20.5,94.5,20.5,130.3,0L780.3,1211z M829.7,1283.4l-523.6,309.9c-35.5,21-64.6,72-64.6,113.2v604
	c0,41.3,29.1,58,64.7,37.1l523.3-306.7c35.6-20.9,64.7-71.7,64.7-113v-607.6C894.2,1278.9,865.2,1262.4,829.7,1283.4z M71.9,1593.3
	l-523.6-309.9c-35.5-21-64.6-4.4-64.6,36.8v607.6c0,41.3,29.1,92.1,64.7,113l523.3,306.8c35.6,20.9,64.7,4.2,64.7-37.1v-604
	C136.5,1665.2,107.4,1614.3,71.9,1593.3z"/>
</svg>
