<?xml version="1.0" encoding="utf-8"?>

<svg version="1.0" id="Layer_1" xmlns="http://www.w3.org/2000/svg" xmlns:xlink="http://www.w3.org/1999/xlink" x="0px" y="0px"
	 viewBox="-720 697 1792 1792" enable-background="new -720 697 1792 1792" xml:space="preserve">
<g id="Permissions">
	<g id="permissions">
		<g>
			<path d="M771.2,1515.9H752V1401c0-318.1-257.9-576-576-576s-576,257.9-576,576v114.9h-19.2c-42.4,0-76.8,34.4-76.8,76.8v691.5
				c0,42.4,34.4,76.8,76.8,76.8H771.2c42.4,0,76.8-34.4,76.8-76.8v-691.5C848,1550.2,813.6,1515.9,771.2,1515.9z M-169.6,1401
				c0-190.9,154.7-345.6,345.6-345.6s345.6,154.7,345.6,345.6v114.9h-691.2V1401z"/>
		</g>
	</g>
</g>
<g id="Layer_1_1_">
</g>
</svg>
