<svg id="Layer_1" data-name="Layer 1" xmlns="http://www.w3.org/2000/svg" viewBox="0 0 1741.41 700.08"><title>phone-end</title><path d="M109.7,1231.15q-19.09-19.09-42.78-56.92t-33.59-63.29q-20.51-50.2,11.31-161.22Q75,847.19,140.1,782.13a385.75,385.75,0,0,1,39.6-34.65q20.51-15.56,49.5-31.82T273,692.33q14.85-7.07,53.74-24.75t47.38-21.92q94-44.55,182.43-65.05Q703,546,896,546t339.41,34.65q88.39,20.51,182.43,65.05,8.49,4.24,47.38,21.92T1519,692.33q14.85,7.07,43.84,23.33t49.5,31.82a385.76,385.76,0,0,1,39.6,34.65q65.05,65.05,95.46,167.58,31.82,111,11.31,161.22-9.9,25.46-33.59,63.29t-42.78,56.92q-9.9,9.9-17,12.73-17,8.49-91.22-16.26-21.21-5.66-59.4-17t-69.65-20.15q-31.47-8.84-59.75-15.91-4.95-.71-30.05-5.3t-40.31-9.9q-15.2-5.3-25.1-15.2-14.14-14.14-15.2-55.51a487.46,487.46,0,0,1,4.95-82.73,602.23,602.23,0,0,0,6.36-81.32q0.35-40-12.37-52.68-6.36-6.36-19.45-12.37a218.3,218.3,0,0,0-20.51-8.49q-7.42-2.47-26.87-7.07t-21.57-5.3Q1034.59,795.57,896,795.57T606.79,838.7q-2.12.71-21.57,5.3t-26.87,7.07a218.3,218.3,0,0,0-20.51,8.49q-13.08,6-19.45,12.37Q505.68,884.66,506,924.62a602.23,602.23,0,0,0,6.36,81.32,487.45,487.45,0,0,1,4.95,82.73q-1.06,41.37-15.2,55.51-9.9,9.9-25.1,15.2t-40.31,9.9q-25.1,4.6-30.05,5.3-28.28,7.07-59.75,15.91t-69.65,20.15q-38.18,11.31-59.4,17-74.25,24.75-91.22,16.26Q119.6,1241,109.7,1231.15Z" transform="translate(-25.29 -545.96)"/></svg>