<?xml version="1.0" encoding="iso-8859-1"?>
<!-- Generator: Adobe Illustrator 18.0.0, SVG Export Plug-In . SVG Version: 6.00 Build 0)  -->
<!DOCTYPE svg PUBLIC "-//W3C//DTD SVG 1.1//EN" "http://www.w3.org/Graphics/SVG/1.1/DTD/svg11.dtd">
<svg version="1.1" xmlns="http://www.w3.org/2000/svg" xmlns:xlink="http://www.w3.org/1999/xlink" x="0px" y="0px"
	 viewBox="0 0 350 420.5" style="enable-background:new 0 0 350 420.5;" xml:space="preserve">
<g id="Policies">
	<g id="policies">
		<g>
			<path style="fill:#00853f;" d="M330,35h-59V23h-0.007c-0.08-7-5.639-12-12.493-12h-54.229c-3.666-12.427-15.156-21.5-28.771-21.5
				S150.395-1.427,146.729,11H91.5c-6.854,0-12.413,5-12.493,12H79v12H20C8.954,35,0,43.954,0,55v335c0,11.046,8.954,20,20,20h310
				c11.046,0,20-8.954,20-20V55C350,43.954,341.046,35,330,35z M175.5,4.5c8.284,0,15,6.716,15,15c0,8.284-6.716,15-15,15
				s-15-6.716-15-15C160.5,11.216,167.216,4.5,175.5,4.5z M320,380H30V65h290V380z M302,165H122v20h180V165z M236.266,195H122v20
				h114.266V195z M236.266,135H122v20h114.266V135z M302,105H122v20h180V105z M302,225H122v20h180V225z M236.266,315H122v20h114.266
				V315z M236.266,255H122v20h114.266V255z M100,165H50v50h50V165z M100,285H50v50h50V285z M100,225H50v50h50V225z M90,265H60v-30
				h30V265z M100,105H50v50h50V105z M302,285H122v20h180V285z"/>
		</g>
	</g>
</g>
<g id="Layer_1">
</g>
</svg>
