
<svg version="1.1" id="Layer_1" xmlns="http://www.w3.org/2000/svg" xmlns:xlink="http://www.w3.org/1999/xlink" x="0px" y="0px" viewBox="521 -521 1856 1792" style="enable-background:new 521 -521 1856 1792;" xml:space="preserve">
	<path d="M585-9h1664c17.3,0,32.3-6.3,45-19s19-27.7,19-45v-256c0-17.3-6.3-32.3-19-45s-27.7-19-45-19H585c-17.3,0-32.3,6.3-45,19
	s-19,27.7-19,45v256c0,17.3,6.3,32.3,19,45S567.7-9,585-9z M1801-265h384v128h-384V-265z M1100,631H585c-17.3,0-32.3,6.3-45,19
	s-19,27.7-19,45v256c0,17.3,6.3,32.3,19,45s27.7,19,45,19h589c-51.3-100.7-77-207.3-77-320C1097,673.7,1098,652.3,1100,631z
	 M585,503h538c22.7-78,57.5-150,104.5-216s103.2-122,168.5-168H585c-17.3,0-32.3,6.3-45,19s-19,27.7-19,45v256
	c0,17.3,6.3,32.3,19,45S567.7,503,585,503z M1801,119c-318.1,0-576,257.9-576,576s257.9,576,576,576s576-257.9,576-576
	S2119.1,119,1801,119z M2185,791h-288v288h-192V791h-288V599h288V311h192v288h288V791z"/>
</svg>
