<svg version="1.1" xmlns="http://www.w3.org/2000/svg" xmlns:xlink="http://www.w3.org/1999/xlink" x="0px" y="0px"
	 viewBox="521 -521 1920 1792" style="enable-background:new 521 -521 1920 1792;" xml:space="preserve">
	 <path  d="M2294-374c-12.7-12.7-27.7-19-45-19H585c-17.3,0-32.3,6.3-45,19s-19,27.7-19,45v256c0,17.3,6.3,32.3,19,45
	s27.7,19,45,19h1664c17.3,0,32.3-6.3,45-19s19-27.7,19-45v-256C2313-346.3,2306.7-361.3,2294-374z M1801-137v-128h384v128H1801z
	 M1289,119H585c-17.3,0-32.3,6.3-45,19s-19,27.7-19,45v256c0,17.3,6.3,32.3,19,45s27.7,19,45,19h704V119z M1431.5,130.5
	c7.7-7,16.8-10.5,27.5-10.5h939c12.7,0,23,3.3,31,10s12,16,12,28v180c0,10-4.2,18.8-12.5,26.5S2410,376,2398,376h-939
	c-10,0-19-4-27-12s-12-16.7-12-26V158C1420,146.7,1423.8,137.5,1431.5,130.5z M1459.5,448.5c8.3-8.3,18.5-12.5,30.5-12.5h884
	c9.3,0,17.8,4.3,25.5,13s11.5,18.7,11.5,30v625c0,11.3-3.8,20.7-11.5,28s-16.2,11-25.5,11h-884c-12,0-22.2-3.5-30.5-10.5
	S1447,1116,1447,1104V479C1447,467,1451.2,456.8,1459.5,448.5z M1813.5,629.5c7.7,7,16.8,10.5,27.5,10.5h180c25.3,0,38-12.7,38-38
	s-12.7-38-38-38h-180c-10.7,0-19.8,3.5-27.5,10.5S1802,590.7,1802,602S1805.8,622.5,1813.5,629.5z M1289,631H585
	c-17.3,0-32.3,6.3-45,19s-19,27.7-19,45v256c0,17.3,6.3,32.3,19,45s27.7,19,45,19h704V631z"/>
</svg>
