<svg version="1.1" id="Layer_1" xmlns="http://www.w3.org/2000/svg" xmlns:xlink="http://www.w3.org/1999/xlink" x="0px" y="0px" viewBox="521 -521 2022 1792" style="enable-background:new 521 -521 2022 1792;" xml:space="preserve"><path  d="M2294-28.5c12.7-13,19-28.2,19-45.5v-255c0-18-6.3-33.2-19-45.5s-27.7-18.5-45-18.5H585
	c-17.3,0-32.3,6.2-45,18.5S521-347,521-329v255c0,17.3,6.3,32.5,19,45.5S567.7-9,585-9h1664C2266.3-9,2281.3-15.5,2294-28.5z
	 M2185-266v128h-362v-128H2185z M2189,95c-10.7,0-19.8,4-27.5,12s-11.5,17.3-11.5,28v157h-138c-292,0-471,82.7-537,248
	c-22.7,54.7-34,122.7-34,204c0,70,26.3,162.7,79,278c10.7,24.7,18,40.3,22,47c4.7,6.7,10.7,10,18,10c12.7,0,19-7,19-21
	c0-7.3-1.3-17.7-4-31c0-6-0.3-14.2-1-24.5s-1.2-19.7-1.5-28s-0.5-16.2-0.5-23.5c0-48,4.5-90.5,13.5-127.5s23-67.8,42-92.5
	s40.5-45.3,64.5-62s53.5-29.5,88.5-38.5S1851,615.3,1887,612s77.7-5,125-5h138v157c0,10.7,3.8,19.8,11.5,27.5s16.8,11.5,27.5,11.5
	s20-4,28-12l314-314c8-7.3,12-16.7,12-28c0-10.7-4-20-12-28l-314-315C2209.7,98.7,2200.3,95,2189,95z M1381,502
	c49.3-122.7,144-209.7,284-261c96-33.3,211.7-50,347-50h37v-56c0-2.7,0.2-5.8,0.5-9.5s0.5-6.2,0.5-7.5H585c-17.3,0-32.3,6.3-45,19
	s-19,28-19,46v255c0,17.3,6.3,32.5,19,45.5s27.7,19.5,45,19.5h796V502z M540,649.5c-12.7,13-19,28.2-19,45.5v255
	c0,17.3,6.3,32.3,19,45s27.7,19,45,19h822c-44-109.3-66-199.3-66-270c0-43.3,2.3-81.3,7-114H585C567.7,630,552.7,636.5,540,649.5z"
	/>
</svg>
