<svg width="1792" height="1792" xmlns="http://www.w3.org/2000/svg" viewBox="590 1292 1792 1792">
<path d="M1821.4,2582.2h-228.4l-110.1-180.9h-78.8v180.9H1193v-788.4h299.2c212.1,0,331.5,134.5,331.5,309.6
	c0,113.6-49.8,204-142.5,255L1821.4,2582.2z M1481.7,2233.2c95.1,0,129.9-53.3,129.9-129.8c0-76.5-34.8-131-129.9-131h-77.6v260.9
	H1481.7z M2364,2393.6c0,0-174-91.1-174-205.6s174-205.6,174-205.6c13.9-7.3,21.3-25.5,16.5-40.5l-87.9-212.6
	c-7.1-14-25.3-21.6-40.3-16.9c0,0-187.5,58.7-268.5-22.3c-81-81-22.3-268.5-22.3-268.5c4.7-15-2.9-33.1-16.9-40.3l-212.6-87.9
	c-15-4.9-33.2,2.5-40.5,16.5c0,0-91.1,174-205.6,174c-114.5,0-205.6-174-205.6-174c-7.3-13.9-25.5-21.3-40.5-16.5l-212.6,87.9
	c-14,7.1-21.6,25.3-16.9,40.3c0,0,58.7,187.5-22.3,268.5c-81,81-268.5,22.3-268.5,22.3c-15-4.7-33.1,2.9-40.3,16.9L591.5,1942
	c-4.9,15,2.5,33.2,16.5,40.5c0,0,174,91.1,174,205.6s-174,205.6-174,205.6c-13.9,7.3-21.3,25.5-16.5,40.5l87.9,212.6
	c7.1,14,25.3,21.6,40.3,16.9c0,0,187.5-58.7,268.5,22.3s22.3,268.5,22.3,268.5c-4.7,15,2.9,33.1,16.9,40.3l212.6,87.9
	c15,4.9,33.2-2.5,40.4-16.5c0,0,91.1-174,205.6-174c114.5,0,205.6,174,205.6,174c7.3,13.9,25.5,21.3,40.4,16.5l212.6-87.9
	c14-7.1,21.6-25.3,16.9-40.3c0,0-58.7-187.5,22.3-268.5c81-81,268.5-22.3,268.5-22.3c15,4.7,33.1-2.9,40.3-16.9l87.9-212.6
	C2385.4,2419.1,2378,2400.9,2364,2393.6z M1486,2792.7c-333.5,0-604.7-271.3-604.7-604.7s271.3-604.8,604.7-604.8
	s604.7,271.3,604.7,604.8S1819.5,2792.7,1486,2792.7z"/>
</svg>
