<svg xmlns="http://www.w3.org/2000/svg" viewBox="0 0 1792 1731.2"><title>cloud-upload</title><path d="M537.6,1403.2c-98.56,0-178.3,80.64-178.3,179.2S439,1761.6,537.6,1761.6,716.8,1681,716.8,1582.4,636.16,1403.2,537.6,1403.2ZM0,90.47v58.78A60.35,60.35,0,0,0,60.35,209.6H179.11a0.15,0.15,0,0,1,.13.08L501.73,889.6a0.15,0.15,0,0,1,0,.14L380.8,1109.18a172.33,172.33,0,0,0-22.18,77.07c-5.05,102.63,78,188.15,180.79,188.15H1612.65a0.15,0.15,0,0,0,.15-0.15v-178.9a0.15,0.15,0,0,0-.15-0.15H575.23a22.18,22.18,0,0,1-22.4-22.38,0.16,0.16,0,0,1,0,0l2.68-10.71v0l80.59-146a0.15,0.15,0,0,1,.13-0.08h667.43a178.35,178.35,0,0,0,156.8-92.29l320.77-581.5c7.17-12.54,10.75-27.78,10.75-43,0-49.28-40.32-89.6-89.6-89.6H377.31a0.15,0.15,0,0,1-.13-0.09L293,30.49a0.15,0.15,0,0,0-.13-0.09H60.07A60.07,60.07,0,0,0,0,90.47ZM1433.6,1403.2c-98.56,0-178.3,80.64-178.3,179.2s79.74,179.2,178.3,179.2,179.2-80.64,179.2-179.2S1532.16,1403.2,1433.6,1403.2Z" transform="translate(0 -30.4)"/></svg>