<?xml version="1.0" encoding="utf-8"?>
<!-- Generator: Adobe Illustrator 19.0.1, SVG Export Plug-In . SVG Version: 6.00 Build 0)  -->
<svg version="1.1" id="Layer_1" xmlns="http://www.w3.org/2000/svg" xmlns:xlink="http://www.w3.org/1999/xlink" x="0px" y="0px"
	 viewBox="0 0 278 350" enable-background="new 0 0 278 350" xml:space="preserve">
<g id="Storage">
	<path fill="#068643" d="M278,116.6c0-0.1,0-0.2,0-0.2V38.9h-0.2c0.1-0.7,0.2-1.3,0.2-2C278,16.5,215.8,0,139,0S0,16.5,0,36.9
		c0,0.7,0.1,1.3,0.2,2H0V233h0v80h0c0,20.4,62.2,37,139,37s139-16.6,139-37c0-0.1,0-0.2,0-0.2V116.9C278,116.8,278,116.7,278,116.6z
		"/>
</g>
</svg>
