<svg xmlns="http://www.w3.org/2000/svg" viewBox="0 0 433.99 415.15"><title>support</title><path d="M423.77,196.23l-10.32-3.61C410.54,86.14,323,.42,215.86.42c-107.44,0-195.12,86.15-197.62,193l-8,2.8a15,15,0,0,0-9,20.33L43.71,315.7a15.46,15.46,0,0,0,19,8.37l48.48-17a15,15,0,0,0,9-20.33L77.7,187.63a15.46,15.46,0,0,0-19-8.37l-9.81,3.43c7.81-85.26,79.7-152.27,167-152.27,87,0,158.7,66.57,166.89,151.44l-7.45-2.61a15.46,15.46,0,0,0-19,8.37l-42.43,99.15a15,15,0,0,0,9,20.33l13.43,4.7c-14.59,32.18-37.85,54-69,64.81a116.33,116.33,0,0,1-15.27,4.2V379c0-4.33-3.24-8.4-7.57-8.4H189.86c-4.32,0-7.86,4.08-7.86,8.4v28.74a7.89,7.89,0,0,0,7.86,7.86h54.57a7.64,7.64,0,0,0,7.57-7.86v-6.5a131.26,131.26,0,0,0,21-5.41c26.11-8.9,61-29.57,82.13-77.38l16.15,5.64a15.48,15.48,0,0,0,19-8.37l42.45-99.14A15,15,0,0,0,423.77,196.23Z" transform="translate(0 -0.42)"/></svg>