<?xml version="1.0" encoding="iso-8859-1"?>
<!-- Generator: Adobe Illustrator 18.0.0, SVG Export Plug-In . SVG Version: 6.00 Build 0)  -->
<!DOCTYPE svg PUBLIC "-//W3C//DTD SVG 1.1//EN" "http://www.w3.org/Graphics/SVG/1.1/DTD/svg11.dtd">
<svg version="1.1" xmlns="http://www.w3.org/2000/svg" xmlns:xlink="http://www.w3.org/1999/xlink" x="0px" y="0px"
	 viewBox="0 0 433.992 415.576" style="enable-background:new 0 0 433.992 415.576;" xml:space="preserve">
<g id="Support">
	<path id="Support_1_" style="fill:#00853f;" d="M423.773,196.228l-10.318-3.611C410.539,86.143,323.022,0.424,215.857,0.424
		c-107.436,0-195.123,86.152-197.618,192.999l-8.012,2.804c-8.445,2.956-12.473,12.103-8.953,20.328l42.435,99.145
		c3.074,7.182,11.622,10.947,18.996,8.366l48.48-16.968c8.444-2.956,12.473-12.103,8.953-20.328l-42.435-99.145
		c-3.074-7.182-11.622-10.947-18.996-8.366l-9.812,3.434c7.806-85.262,79.7-152.27,166.963-152.27
		c86.981,0,158.697,66.575,166.889,151.444l-7.453-2.609c-7.374-2.581-15.922,1.184-18.996,8.366l-42.435,99.145
		c-3.52,8.225,0.509,17.373,8.953,20.328l13.43,4.7c-14.589,32.181-37.852,53.97-68.975,64.813c-5.254,1.831-10.27,3.19-15.27,4.205
		v-1.839c0-4.325-3.244-8.402-7.569-8.402h-54.568c-4.325,0-7.863,4.077-7.863,8.402v28.735c0,4.325,3.539,7.863,7.863,7.863h54.568
		c4.325,0,7.569-3.539,7.569-7.863v-6.496c7-1.183,13.633-2.912,20.971-5.414c26.108-8.904,60.986-29.567,82.132-77.376
		l16.155,5.641c7.374,2.581,15.94-1.184,19.014-8.366l42.445-99.145C436.237,208.331,432.217,199.183,423.773,196.228z"/>
</g>
<g id="Layer_1">
</g>
</svg>
