<?xml version="1.0" encoding="utf-8"?>

<svg version="1.0" id="Layer_1" xmlns="http://www.w3.org/2000/svg" xmlns:xlink="http://www.w3.org/1999/xlink" x="0px" y="0px"
	 viewBox="0 0 1792 1792" enable-background="new 0 0 1792 1792" xml:space="preserve">
<path d="M1644,686.5H148c-11,0-20,9-20,20v378.9c0,11,9,20,20,20h1496c11,0,20-9,20-20V706.5C1664,695.5,1655,686.5,1644,686.5z
	 M407.3,1035.6c-77.1,0-139.6-62.5-139.6-139.6s62.5-139.6,139.6-139.6S546.9,818.9,546.9,896S484.4,1035.6,407.3,1035.6z M704,983
	h-35v18h-35v-18h-35v-70h105V983z M704,861h-35v18h-35v-18h-35v-70h105V861z M844,983h-35v18h-35v-18h-35v-70h105V983z M844,861h-35
	v18h-35v-18h-35v-70h105V861z M983,983h-35v18h-35v-18h-34v-70h104V983z M983,861h-35v18h-35v-18h-34v-70h104V861z M1123,983h-35v18
	h-35v-18h-35v-70h105V983z M1123,861h-35v18h-35v-18h-35v-70h105V861z M1263,983h-35v18h-35v-18h-35v-70h105V983z M1263,861h-35v18
	h-35v-18h-35v-70h105V861z M1402,983h-35v18h-35v-18h-35v-70h105V983z M1402,861h-35v18h-35v-18h-35v-70h105V861z M1542,983h-35v18
	h-35v-18h-35v-70h105V983z M1542,861h-35v18h-35v-18h-35v-70h105V861z M407.3,826.2c-38.5,0-69.8,31.3-69.8,69.8
	c0,38.5,31.3,69.8,69.8,69.8c38.5,0,69.8-31.3,69.8-69.8C477.1,857.5,445.8,826.2,407.3,826.2z"/>
</svg>
