<?xml version="1.0" encoding="utf-8"?>

<svg version="1.0" id="Layer_1" xmlns="http://www.w3.org/2000/svg" xmlns:xlink="http://www.w3.org/1999/xlink" x="0px" y="0px"
   viewBox="-675 677.2 1792 1792" enable-background="new -675 677.2 1792 1792" xml:space="preserve">
<path fill="000000" d="M215.8,1482.2h-65.9v78.6h65.9c24.4,0,42.8-15.3,42.8-39.3C258.6,1497,240.2,1482.2,215.8,1482.2z
   M968.5,1523.8L270.4,825.7c-27.3-27.3-71.5-27.3-98.8,0l-698.1,698.1c-27.3,27.3-27.3,71.5,0,98.8l698.1,698.1
  c27.3,27.3,71.5,27.3,98.8,0l698.1-698.1C995.8,1595.4,995.8,1551.1,968.5,1523.8z M-89.4,1718.8h-77.7l-112.6-291.2h70.7l80.8,224
  l80.3-224h70.7L-89.4,1718.8z M224.1,1615.4h-74.2v103.5h-62v-291.2h136.2c63.3,0,97.8,42.8,97.8,93.9
  C321.9,1572.1,287,1615.4,224.1,1615.4z M654,1718.8h-59.8l-138.8-189.9v189.9h-62v-291.2h63.7L592,1610.6v-182.9h62V1718.8z"/>
</svg>
